<svg width="21" height="21" viewBox="0 0 21 21" fill="none" xmlns="http://www.w3.org/2000/svg">
<path fill-rule="evenodd" clip-rule="evenodd" d="M10.4727 0C4.71278 0 0 4.72505 0 10.5C0 16.2752 4.71278 21 10.4727 21C11.462 21 12.2182 20.2418 12.2182 19.25C12.2182 18.7835 12.0437 18.375 11.7529 18.0834C11.462 17.7916 11.2875 17.3832 11.2875 16.9166C11.2875 15.9249 12.0437 15.1666 13.033 15.1666H15.1273C18.3273 15.1666 20.9455 12.5416 20.9455 9.33335C20.9455 4.20011 16.2329 0 10.4727 0ZM4.07275 10.5C3.08351 10.5 2.32729 9.74181 2.32729 8.75C2.32729 7.75819 3.08351 7 4.07275 7C5.06193 7 5.8182 7.75819 5.8182 8.75C5.8182 9.74181 5.06193 10.5 4.07275 10.5ZM7.56365 5.83335C6.57442 5.83335 5.8182 5.07511 5.8182 4.08335C5.8182 3.09154 6.57442 2.33335 7.56365 2.33335C8.55284 2.33335 9.30911 3.09154 9.30911 4.08335C9.30911 5.07511 8.55284 5.83335 7.56365 5.83335ZM13.3818 5.83335C12.3926 5.83335 11.6363 5.07511 11.6363 4.08335C11.6363 3.09154 12.3926 2.33335 13.3818 2.33335C14.371 2.33335 15.1273 3.09154 15.1273 4.08335C15.1273 5.07511 14.371 5.83335 13.3818 5.83335ZM16.8727 10.5C15.8835 10.5 15.1273 9.74181 15.1273 8.75C15.1273 7.75819 15.8835 7 16.8727 7C17.8619 7 18.6182 7.75819 18.6182 8.75C18.6182 9.74181 17.8619 10.5 16.8727 10.5Z" fill="black" fill-opacity="0.54"/>
</svg>
